<?xml version="1.0" ?>
<!DOCTYPE svg  PUBLIC '-//W3C//DTD SVG 1.1//EN'  'http://www.w3.org/Graphics/SVG/1.1/DTD/svg11.dtd'>
<!-- Uploaded to: SVG Repo, www.svgrepo.com, Generator: SVG Repo Mixer Tools -->
<svg width="800px" height="800px" viewBox="0 0 512 512" version="1.1" xml:space="preserve" xmlns="http://www.w3.org/2000/svg" xmlns:xlink="http://www.w3.org/1999/xlink">
<g id="_x36_35_x2C__candle_x2C__light_x2C__wedding_x2C__love">
<g>
<path d="M136.647,124.61c0,7.36-6.229,13.59-14.16,13.59c-7.359,0-13.59-6.23-13.59-13.59    s6.23-13.59,13.59-13.59C130.418,111.02,136.647,117.25,136.647,124.61z" style="fill:#F34E2D;"/>
<path d="M113.897,133.67c0-7.36,6.23-13.59,13.59-13.59c3.487,0,6.645,1.207,9.09,3.183    c-0.705-6.757-6.648-12.243-14.09-12.243c-7.359,0-13.59,6.23-13.59,13.59c0,4.174,2.007,7.981,5.083,10.498    C113.929,134.634,113.897,134.155,113.897,133.67z" style="fill:#E03D22;"/>
<path d="M308.998,173.53c0,33.07-20.32,59.85-45.3,59.85c-25.07,0-45.311-26.78-45.311-59.85    c0-36.98,29.5-55.6,47.721-89.69C281.448,116.31,308.998,140.97,308.998,173.53z" style="fill:#FBB14F;"/>
<path d="M227.162,184.863c0-36.071,28.063-54.681,46.353-87.211c-2.646-4.47-5.159-9.055-7.406-13.812    c-18.221,34.09-47.721,52.71-47.721,89.69c0,19.723,7.201,37.204,18.331,48.106C230.733,211.49,227.162,198.735,227.162,184.863z" style="fill:#E0973F;"/>
<path d="M331.138,298.76h10.49c2.36,0,4.63-0.391,6.75-1.1v153.6c0,12.27-10.07,22.211-22.49,22.211h-125.9    c-0.14,0-0.29,0-0.43-0.012c-12.22-0.219-22.05-10.068-22.05-22.199V328.75c2.11,0.709,4.38,1.1,6.74,1.1    c11.59,0,20.979-9.279,20.979-20.73v41.461c0,11.449,9.4,20.73,20.99,20.73h10.49c11.59,0,20.99-9.281,20.99-20.73v-20.73    c0,11.451,9.39,20.73,20.979,20.73h10.49c11.59,0,20.99-9.279,20.99-20.73v-51.82C310.158,289.48,319.548,298.76,331.138,298.76z" style="fill:#EF3E5C;"/>
<g>
<g>
<g>
<path d="M187.008,458.26V335.75c2.11,0.709,4.38,1.1,6.74,1.1c4.24,0,8.181-1.252,11.479-3.389v-24.342       c0,11.451-9.39,20.73-20.979,20.73c-2.36,0-4.63-0.391-6.74-1.1v122.51c0,9.408,5.915,17.441,14.271,20.678       C188.792,468.168,187.008,463.422,187.008,458.26z" style="fill:#E42A53;"/>
</g>
</g>
</g>
<path d="M362.608,246.94v31.089c0,9.121-5.95,16.85-14.23,19.631c-2.12,0.709-4.39,1.1-6.75,1.1h-10.49    c-11.59,0-20.979-9.279-20.979-20.73v51.82c0,11.451-9.4,20.73-20.99,20.73h-10.49c-11.59,0-20.979-9.279-20.979-20.73v20.73    c0,11.449-9.4,20.73-20.99,20.73h-10.49c-11.59,0-20.99-9.281-20.99-20.73v-41.461c0,11.451-9.39,20.73-20.979,20.73    c-2.36,0-4.63-0.391-6.74-1.1c-8.28-2.77-14.24-10.51-14.24-19.631V246.94h14.24h27.72h52.471h52.46h38.22H362.608z" style="fill:#D30045;"/>
<g>
<g>
<g>
<path d="M172.328,318.5v-62.18h14.239h27.721h52.471h52.459h38.221h5.17v-9.38h-14.23h-38.22h-52.46       h-52.471h-27.72h-14.24v62.179c0,7.922,4.499,14.797,11.105,18.283C173.07,324.703,172.328,321.689,172.328,318.5z" style="fill:#AF0945;"/>
</g>
</g>
</g>
<path d="M267.468,61.65c-2.762,0-5-2.239-5-5V38.53c0-2.761,2.238-5,5-5s5,2.239,5,5v18.12    C272.468,59.411,270.229,61.65,267.468,61.65z" style="fill:#FBB14F;"/>
<path d="M326.792,116.02c-1.494,0-2.972-0.666-3.957-1.938c-1.69-2.184-1.292-5.324,0.892-7.015l17.7-13.71    c2.182-1.69,5.324-1.291,7.015,0.891c1.69,2.184,1.292,5.324-0.892,7.015l-17.7,13.71    C328.939,115.678,327.861,116.02,326.792,116.02z" style="fill:#FBB14F;"/>
<path d="M208.154,116.02c-1.069,0-2.146-0.341-3.058-1.046l-17.71-13.71    c-2.184-1.69-2.583-4.831-0.893-7.014c1.689-2.184,4.831-2.583,7.014-0.893l17.71,13.71c2.184,1.69,2.584,4.831,0.894,7.014    C211.126,115.354,209.647,116.02,208.154,116.02z" style="fill:#FBB14F;"/>
<path d="M299.925,86.241c-0.672,0-1.354-0.136-2.009-0.424c-2.528-1.111-3.677-4.061-2.565-6.589l6.2-14.11    c1.111-2.527,4.058-3.677,6.589-2.566c2.528,1.111,3.677,4.061,2.565,6.589l-6.2,14.11    C303.682,85.125,301.849,86.241,299.925,86.241z" style="fill:#FBB14F;"/>
<path d="M234.72,86.241c-1.923,0-3.757-1.116-4.58-2.99l-6.199-14.11c-1.111-2.528,0.038-5.478,2.566-6.589    c2.525-1.112,5.478,0.038,6.589,2.566l6.199,14.11c1.111,2.528-0.038,5.478-2.566,6.589    C236.074,86.105,235.392,86.241,234.72,86.241z" style="fill:#FBB14F;"/>
<path d="M117.772,241.94c0,7.36-6.229,13.59-14.16,13.59c-7.359,0-13.59-6.23-13.59-13.59    s6.23-13.59,13.59-13.59C111.543,228.35,117.772,234.58,117.772,241.94z" style="fill:#F34E2D;"/>
<path d="M95.022,251c0-7.36,6.23-13.59,13.59-13.59c3.487,0,6.645,1.207,9.09,3.183    c-0.705-6.757-6.648-12.243-14.09-12.243c-7.359,0-13.59,6.23-13.59,13.59c0,4.174,2.007,7.981,5.083,10.498    C95.054,251.964,95.022,251.485,95.022,251z" style="fill:#E03D22;"/>
<path d="M400.358,212.16c0,7.36-6.23,13.59-14.16,13.59c-7.359,0-13.59-6.23-13.59-13.59    s6.23-13.59,13.59-13.59C394.128,198.57,400.358,204.8,400.358,212.16z" style="fill:#F34E2D;"/>
<path d="M377.608,221.22c0-7.36,6.23-13.59,13.59-13.59c3.487,0,6.645,1.207,9.09,3.183    c-0.705-6.757-6.648-12.243-14.09-12.243c-7.359,0-13.59,6.23-13.59,13.59c0,4.174,2.006,7.981,5.083,10.498    C377.64,222.184,377.608,221.705,377.608,221.22z" style="fill:#E03D22;"/>
<path d="M185.926,413.65c-2.21,0-4.231-1.477-4.827-3.713c-0.712-2.668,0.874-5.408,3.543-6.119    l135.92-36.24c2.671-0.713,5.407,0.875,6.119,3.543s-0.875,5.408-3.543,6.119l-135.92,36.24    C186.786,413.596,186.353,413.65,185.926,413.65z" style="fill:#E42A53;"/>
<path d="M183.377,450.615c-2.137,0-4.097-1.414-4.696-3.574c-0.722-2.596,0.798-5.283,3.394-6.004    l159.116-44.203c2.589-0.725,5.284,0.797,6.005,3.395c0.721,2.596-0.799,5.283-3.395,6.004l-159.115,44.203    C184.249,450.557,183.81,450.615,183.377,450.615z" style="fill:#E42A53;"/>
<path d="M199.55,478.461c-2.313,0-4.405-1.604-4.907-3.951c-0.573-2.688,1.104-5.328,3.782-5.922    l108.61-27.148c2.679-0.672,5.395,0.959,6.063,3.637c0.67,2.68-0.959,5.395-3.638,6.064l-108.69,27.17    c-0.056,0.014-0.112,0.027-0.168,0.039C200.25,478.424,199.896,478.461,199.55,478.461z" style="fill:#E42A53;"/>
<path d="M416.978,478.471h-299.02c-2.762,0-5-2.238-5-5s2.238-5,5-5h299.02c2.762,0,5,2.238,5,5    S419.739,478.471,416.978,478.471z" style="fill:#EF3E5C;"/>
</g>
</g>
<g id="Layer_1"/>
</svg>