<?xml version="1.0" encoding="utf-8"?>
<!-- Generator: Adobe Illustrator 24.2.0, SVG Export Plug-In . SVG Version: 6.00 Build 0)  -->
<svg version="1.1" id="Capa_1" xmlns="http://www.w3.org/2000/svg" xmlns:xlink="http://www.w3.org/1999/xlink" x="0px" y="0px"
	 viewBox="0 0 165.19 165.19" enable-background="new 0 0 165.19 165.19" xml:space="preserve">
<path fill="#F29F04" d="M159.99,68.468l-6.76-7.8c-2.947-3.467-4.853-7.8-5.2-12.48l-0.867-10.227
	c-0.867-10.574-9.36-19.067-19.934-19.934l-10.227-0.867c-4.507-0.347-9.014-2.08-12.48-5.2l-7.8-6.76
	c-8.147-6.933-20.107-6.933-28.254,0l-7.8,6.76c-3.467,2.947-7.8,4.853-12.48,5.2l-10.227,0.867
	c-10.574,0.867-19.067,9.36-19.934,19.934L17.16,48.188c-0.347,4.507-2.08,9.014-5.2,12.48l-6.76,7.8
	c-6.933,8.147-6.933,20.107,0,28.254l6.76,7.8c2.947,3.467,4.854,7.8,5.2,12.48l0.867,10.227
	c0.867,10.574,9.36,19.067,19.934,19.934l10.227,0.867c4.507,0.347,9.014,2.08,12.48,5.2l7.8,6.76
	c8.147,6.934,20.107,6.934,28.254,0l7.8-6.76c3.467-2.947,7.8-4.853,12.48-5.2l10.227-0.867c10.574-0.867,19.067-9.36,19.934-19.934
	l0.867-10.227c0.347-4.507,2.08-9.014,5.2-12.48l6.76-7.8C166.924,88.575,166.924,76.442,159.99,68.468z"/>
</svg>
