<?xml version="1.0" encoding="utf-8"?>
<!-- Generator: Adobe Illustrator 24.2.0, SVG Export Plug-In . SVG Version: 6.00 Build 0)  -->
<svg version="1.1" id="Capa_1" xmlns="http://www.w3.org/2000/svg" xmlns:xlink="http://www.w3.org/1999/xlink" x="0px" y="0px"
	 viewBox="0 0 85.513 85.513" enable-background="new 0 0 85.513 85.513" xml:space="preserve">
<g>
	<path fill="#CCCCCC" d="M42.757,85.513L42.757,85.513c-6.883,0-12.514-5.631-12.514-12.514V12.514C30.243,5.631,35.874,0,42.757,0
		h0c6.883,0,12.514,5.631,12.514,12.514v60.485C55.271,79.882,49.64,85.513,42.757,85.513z"/>
	<path fill="#CCCCCC" d="M85.513,42.757L85.513,42.757c0,6.883-5.631,12.514-12.514,12.514H12.514C5.631,55.271,0,49.64,0,42.757v0
		c0-6.883,5.631-12.514,12.514-12.514h60.485C79.882,30.243,85.513,35.874,85.513,42.757z"/>
</g>
</svg>
